<svg width="112" height="24" viewBox="0 0 112 24" version="1.1" xmlns="http://www.w3.org/2000/svg" xmlns:xlink="http://www.w3.org/1999/xlink">
<title>canon-logo</title>
<desc>Created using Figma</desc>
<g id="Canvas" transform="translate(630 -349)">
<rect x="-630" y="349" width="112" height="24" fill="#E5E5E5"/>
<clipPath id="clip-0" clip-rule="evenodd">
<path d="M -670 325L 307 325L 307 1074L -670 1074L -670 325Z" fill="#FFFFFF"/>
</clipPath>
<g id="1320-delivery-details" clip-path="url(#clip-0)">
<path d="M -670 325L 307 325L 307 1074L -670 1074L -670 325Z" fill="#FFFFFF"/>
<g id="canon-logo">
<g id="Vector">
<use xlink:href="#path0_fill" transform="translate(-630 349)" fill="#CC0000"/>
</g>
<g id="Vector">
<use xlink:href="#path1_fill" transform="translate(-602.84 353.1)" fill="#CC0000"/>
</g>
<g id="Vector">
<use xlink:href="#path2_fill" transform="translate(-582.834 353.1)" fill="#CC0000"/>
</g>
<g id="Vector">
<use xlink:href="#path3_fill" transform="translate(-539.84 353.1)" fill="#CC0000"/>
</g>
<g id="Vector">
<use xlink:href="#path4_fill" transform="translate(-558.138 353.1)" fill="#CC0000"/>
</g>
</g>
</g>
</g>
<defs>
<path id="path0_fill" d="M 18.284 21.6487C 13.076 21.6487 8.862 17.319 8.862 11.9857C 8.862 6.65233 13.076 2.33692 18.284 2.33692C 20.118 2.33692 21.84 2.86738 23.282 3.79928L 18.284 11.9857L 27.692 6.42294C 26.67 4.75986 25.2 3.31183 23.436 2.22222C 21.182 0.860215 18.046 0 14.574 0C 9.618 0 5.278 1.83513 2.856 4.60215C 1.064 6.63799 0 9.2043 0 12C 0 14.7957 1.064 17.362 2.856 19.3978C 5.278 22.1649 9.562 23.9857 14.434 23.9857C 19.306 23.9857 23.576 22.1505 26.012 19.3978C 26.138 19.2401 26.278 19.0968 26.39 18.9391L 26.026 17.534C 24.318 20.0143 21.49 21.6487 18.284 21.6487Z"/>
<path id="path1_fill" d="M 22.316 19.3118L 18.368 4.22939C 17.738 1.79211 15.568 5.4691e-08 12.992 5.4691e-08C 12.32 5.4691e-08 11.676 0.129032 11.088 0.344086L 2.59 3.51254L 11.326 3.51254L 12.824 9.21864C 11.368 7.94265 9.492 7.16846 7.42 7.16846C 3.318 7.16846 3.97904e-15 9.9785 3.97904e-15 13.4624C 3.97904e-15 16.9319 3.318 19.7563 7.42 19.7563C 10.374 19.7563 12.992 18.2796 14.602 16L 15.47 19.3118L 22.316 19.3118ZM 10.276 16.9606C 8.386 16.9606 6.846 15.3979 6.846 13.448C 6.846 11.5125 8.386 9.93548 10.276 9.93548C 12.166 9.93548 13.706 11.5125 13.706 13.448C 13.706 15.3979 12.166 16.9606 10.276 16.9606Z"/>
<path id="path2_fill" d="M 18.41 5.4691e-08C 17.892 5.4691e-08 17.402 0.114695 16.968 0.329749L 11.508 2.93907C 11.242 1.27599 9.828 0.014337 8.12 0.014337C 7.602 0.014337 7.112 0.129032 6.664 0.344086L -8.54492e-07 3.52688L 4.69 3.52688L 4.69 19.3262L 11.55 19.3262L 11.55 5.27599C 11.55 4.30108 12.32 3.51254 13.258 3.51254C 14.196 3.51254 14.966 4.30108 14.966 5.27599L 14.966 19.3262L 21.826 19.3262L 21.826 3.51254C 21.826 1.56272 20.3 5.4691e-08 18.41 5.4691e-08Z"/>
<path id="path3_fill" d="M 18.41 5.4691e-08C 17.892 5.4691e-08 17.402 0.114695 16.954 0.329749L 11.508 2.92473C 11.242 1.26165 9.828 5.4691e-08 8.12 5.4691e-08C 7.602 5.4691e-08 7.112 0.114695 6.664 0.329749L 0 3.51254L 4.69 3.51254L 4.69 19.3118L 11.55 19.3118L 11.55 5.26165C 11.55 4.28674 12.32 3.49821 13.272 3.49821C 14.224 3.49821 14.98 4.28674 14.98 5.26165L 14.98 19.3118L 21.84 19.3118L 21.84 3.51254C 21.84 1.56272 20.3 5.4691e-08 18.41 5.4691e-08Z"/>
<path id="path4_fill" d="M 19.418 9.94982C 19.418 15.4409 15.078 19.8996 9.716 19.8996C 4.354 19.8996 -1.70898e-06 15.4409 -1.70898e-06 9.94982C -1.70898e-06 4.45878 4.354 5.4691e-08 9.716 5.4691e-08C 15.078 5.4691e-08 19.418 4.45878 19.418 9.94982ZM 10.108 3.01075C 9.8 1.83513 8.624 1.14695 7.49 1.46237C 6.342 1.77778 5.67 2.98208 5.978 4.14337L 9.31 16.8602C 9.618 18.0358 10.794 18.724 11.928 18.4229C 13.076 18.1075 13.748 16.9032 13.44 15.7276L 10.108 3.01075Z"/>
</defs>
</svg>
