<svg width="18" height="18" viewBox="0 0 18 18" version="1.1" xmlns="http://www.w3.org/2000/svg" xmlns:xlink="http://www.w3.org/1999/xlink">
<title>accessibility</title>
<desc>Created using Figma</desc>
<g id="Canvas" transform="translate(-177 0)">
<clipPath id="clip-0" clip-rule="evenodd">
<path d="M 177 0L 195 0L 195 18L 177 18L 177 0Z" fill="#FFFFFF"/>
</clipPath>
<g id="accessibility" clip-path="url(#clip-0)">
<g id="Ellipse 7">
<use xlink:href="#path0_stroke" transform="translate(178 8.5)"/>
</g>
<g id="Ellipse 7">
<mask id="mask0_outline_ins">
<use xlink:href="#path1_fill" fill="white" transform="translate(180 0)"/>
</mask>
<g mask="url(#mask0_outline_ins)">
<use xlink:href="#path2_stroke_2x" transform="translate(180 0)"/>
</g>
</g>
<g id="Vector 5">
<use xlink:href="#path3_stroke" transform="translate(186 12)"/>
</g>
<g id="Vector 7">
<use xlink:href="#path4_stroke" transform="translate(181.5 7.5)"/>
</g>
</g>
</g>
<defs>
<path id="path0_stroke" d="M 11 3.57072C 11 3.01843 10.5523 2.57072 10 2.57072C 9.44771 2.57072 9 3.01843 9 3.57072L 11 3.57072ZM 2.20004 0.714099C 2.59443 0.327476 2.60072 -0.305658 2.2141 -0.700044C 1.82748 -1.09443 1.19434 -1.10072 0.799956 -0.714099L 2.20004 0.714099ZM 9 3.57072C 9 5.77986 7.20914 7.57072 5 7.57072L 5 9.57072C 8.31371 9.57072 11 6.88442 11 3.57072L 9 3.57072ZM 5 7.57072C 2.79086 7.57072 1 5.77986 1 3.57072L -1 3.57072C -1 6.88442 1.68629 9.57072 5 9.57072L 5 7.57072ZM 1 3.57072C 1 2.45155 1.45831 1.44123 2.20004 0.714099L 0.799956 -0.714099C -0.309675 0.373691 -1 1.89249 -1 3.57072L 1 3.57072Z"/>
<path id="path1_fill" d="M 6 3C 6 4.65685 4.65685 6 3 6C 1.34315 6 0 4.65685 0 3C 0 1.34315 1.34315 0 3 0C 4.65685 0 6 1.34315 6 3Z"/>
<path id="path2_stroke_2x" d="M 4 3C 4 3.55228 3.55228 4 3 4L 3 8C 5.76142 8 8 5.76142 8 3L 4 3ZM 3 4C 2.44772 4 2 3.55228 2 3L -2 3C -2 5.76142 0.238576 8 3 8L 3 4ZM 2 3C 2 2.44772 2.44772 2 3 2L 3 -2C 0.238576 -2 -2 0.238576 -2 3L 2 3ZM 3 2C 3.55228 2 4 2.44772 4 3L 8 3C 8 0.238576 5.76142 -2 3 -2L 3 2Z"/>
<path id="path3_stroke" d="M 0 -1C -0.552285 -1 -1 -0.552285 -1 0C -1 0.552285 -0.552285 1 0 1L 0 -1ZM 4 0L 4.92848 -0.371391C 4.77661 -0.751049 4.4089 -1 4 -1L 4 0ZM 6 5L 5.07152 5.37139C 5.22339 5.75105 5.5911 6 6 6L 6 5ZM 7 6C 7.55228 6 8 5.55228 8 5C 8 4.44772 7.55228 4 7 4L 7 6ZM 0 1L 4 1L 4 -1L 0 -1L 0 1ZM 3.07152 0.371391L 5.07152 5.37139L 6.92848 4.62861L 4.92848 -0.371391L 3.07152 0.371391ZM 6 6L 7 6L 7 4L 6 4L 6 6Z"/>
<path id="path4_stroke" d="M 2.43633 0.351123C 2.63025 -0.165997 2.36824 -0.742409 1.85112 -0.936329C 1.334 -1.13025 0.757591 -0.868244 0.563671 -0.351123L 2.43633 0.351123ZM 0 4L -0.936329 3.64888C -1.07402 4.01605 -0.984394 4.42982 -0.707107 4.70711L 0 4ZM 0.792893 6.20711C 1.18342 6.59763 1.81658 6.59763 2.20711 6.20711C 2.59763 5.81658 2.59763 5.18342 2.20711 4.79289L 0.792893 6.20711ZM 0.563671 -0.351123L -0.936329 3.64888L 0.936329 4.35112L 2.43633 0.351123L 0.563671 -0.351123ZM -0.707107 4.70711L 0.792893 6.20711L 2.20711 4.79289L 0.707107 3.29289L -0.707107 4.70711Z"/>
</defs>
</svg>
