<svg width="18" height="18" viewBox="0 0 18 18" version="1.1" xmlns="http://www.w3.org/2000/svg" xmlns:xlink="http://www.w3.org/1999/xlink">
<title>account</title>
<desc>Created using Figma</desc>
<g id="Canvas" transform="translate(-45 0)">
<g id="account">
<g id="icon">
<g id="Ellipse 2">
<mask id="mask0_outline_ins">
<use xlink:href="#path0_fill" fill="white" transform="translate(49 1)"/>
</mask>
<g mask="url(#mask0_outline_ins)">
<use xlink:href="#path1_stroke_2x" transform="translate(49 1)"/>
</g>
</g>
<g id="Ellipse 2">
<use xlink:href="#path2_stroke" transform="translate(48 13)"/>
</g>
</g>
</g>
</g>
<defs>
<path id="path0_fill" d="M 10 5C 10 7.76142 7.76142 10 5 10C 2.23858 10 0 7.76142 0 5C 0 2.23858 2.23858 0 5 0C 7.76142 0 10 2.23858 10 5Z"/>
<path id="path1_stroke_2x" d="M 8 5C 8 6.65685 6.65685 8 5 8L 5 12C 8.86599 12 12 8.86599 12 5L 8 5ZM 5 8C 3.34315 8 2 6.65685 2 5L -2 5C -2 8.86599 1.13401 12 5 12L 5 8ZM 2 5C 2 3.34315 3.34315 2 5 2L 5 -2C 1.13401 -2 -2 1.13401 -2 5L 2 5ZM 5 2C 6.65685 2 8 3.34315 8 5L 12 5C 12 1.13401 8.86599 -2 5 -2L 5 2Z"/>
<path id="path2_stroke" d="M 1 4C 1 3.33381 1.40506 2.60829 2.31206 2.00362C 3.21207 1.40361 4.51303 1 6 1L 6 -1C 4.17326 -1 2.47422 -0.508184 1.20266 0.339523C -0.0619109 1.18257 -1 2.45705 -1 4L 1 4ZM 6 1C 7.48697 1 8.78793 1.40361 9.68794 2.00362C 10.5949 2.60829 11 3.33381 11 4L 13 4C 13 2.45705 12.0619 1.18257 10.7973 0.339523C 9.52578 -0.508184 7.82674 -1 6 -1L 6 1Z"/>
</defs>
</svg>
