<svg width="18" height="18" viewBox="0 0 18 18" version="1.1" xmlns="http://www.w3.org/2000/svg" xmlns:xlink="http://www.w3.org/1999/xlink">
<title>cart</title>
<desc>Created using Figma</desc>
<g id="Canvas" transform="translate(-89 0)">
<clipPath id="clip-0" clip-rule="evenodd">
<path d="M 89 0L 107 0L 107 18L 89 18L 89 0Z" fill="#FFFFFF"/>
</clipPath>
<g id="cart" clip-path="url(#clip-0)">
<g id="cart-v1">
<g id="icon">
<g id="basket">
<g id="Rectangle 16">
<use xlink:href="#path0_stroke" transform="translate(90 8)"/>
</g>
</g>
<g id="Intersect">
<use xlink:href="#path1_fill" transform="translate(92.9997 7)"/>
</g>
<g id="Ellipse 3">
<use xlink:href="#path2_stroke" transform="translate(94 1)"/>
</g>
</g>
</g>
</g>
</g>
<defs>
<path id="path0_stroke" d="M 16.9487 0.316228C 17.1233 -0.207716 16.8402 -0.774036 16.3162 -0.948683C 15.7923 -1.12333 15.226 -0.840171 15.0513 -0.316228L 16.9487 0.316228ZM 13 9L 13 10C 13.4304 10 13.8126 9.72457 13.9487 9.31623L 13 9ZM 3 9L 2.05132 9.31623C 2.18743 9.72457 2.56957 10 3 10L 3 9ZM 0.948683 -0.316228C 0.774036 -0.840171 0.207716 -1.12333 -0.316228 -0.948683C -0.840171 -0.774036 -1.12333 -0.207716 -0.948683 0.316228L 0.948683 -0.316228ZM 15.0513 -0.316228L 12.0513 8.68377L 13.9487 9.31623L 16.9487 0.316228L 15.0513 -0.316228ZM 13 8L 3 8L 3 10L 13 10L 13 8ZM 3.94868 8.68377L 0.948683 -0.316228L -0.948683 0.316228L 2.05132 9.31623L 3.94868 8.68377Z"/>
<path id="path1_fill" fill-rule="evenodd" d="M 1.00041 0C 0.984929 0 0.969446 9.06897e-05 0.953982 0.00081513C 0.864208 0.00502086 0.773507 0.0214936 0.684042 0.0513144C 0.684038 0.0513157 0.684034 0.0513169 0.684031 0.0513181C 0.160095 0.225967 -0.12306 0.792282 0.0515808 1.31622C 0.0515818 1.31623 0.0515829 1.31623 0.0515839 1.31623L 2.05158 7.31623C 2.18769 7.72457 2.56983 8 3.00027 8C 3.68282 8 4.1648 7.3313 3.94895 6.68377L 1.94895 0.683779C 1.94895 0.683774 1.94895 0.683769 1.94895 0.683764C 1.81445 0.280281 1.44768 0.0195925 1.04685 0.000815584C 1.03139 9.1319e-05 1.01589 0 1.00041 0ZM 5.00041 0C 4.98493 0 4.96945 9.06897e-05 4.95398 0.00081513C 4.86421 0.00502086 4.77351 0.0214936 4.68404 0.0513144C 4.68404 0.0513157 4.68403 0.0513169 4.68403 0.0513181C 4.16009 0.225967 3.87694 0.792282 4.05158 1.31622C 4.05158 1.31623 4.05158 1.31623 4.05158 1.31623L 6.05158 7.31623C 6.18769 7.72457 6.56983 8 7.00027 8C 7.68283 8 8.1648 7.3313 7.94895 6.68377L 5.94895 0.683779C 5.94895 0.683774 5.94895 0.683769 5.94895 0.683764C 5.81445 0.280281 5.44768 0.0195925 5.04685 0.000815584C 5.03139 9.1319e-05 5.01589 0 5.00041 0ZM 9.00041 0C 8.98493 0 8.96945 9.069e-05 8.95398 0.00081513C 8.86421 0.00502086 8.77351 0.0214936 8.68404 0.0513144C 8.68404 0.0513157 8.68403 0.0513169 8.68403 0.0513181C 8.16009 0.225968 7.87694 0.792283 8.05158 1.31622C 8.05158 1.31623 8.05158 1.31623 8.05158 1.31623L 8.3641 2.25377C 8.63744 3.0738 9.75217 3.18418 10.181 2.43368C 10.3222 2.18666 10.3514 1.89122 10.2615 1.62131L 9.94895 0.683779C 9.94895 0.683774 9.94895 0.683769 9.94895 0.683764C 9.81445 0.280281 9.44768 0.0195926 9.04685 0.000815586C 9.03139 9.13203e-05 9.01589 0 9.00041 0Z"/>
<path id="path2_stroke" d="M -1 4C -1 4.55228 -0.552285 5 0 5C 0.552285 5 1 4.55228 1 4L -1 4ZM 7 4C 7 4.55228 7.44772 5 8 5C 8.55229 5 9 4.55228 9 4L 7 4ZM 1 4C 1 2.34315 2.34315 1 4 1L 4 -1C 1.23858 -1 -1 1.23858 -1 4L 1 4ZM 4 1C 5.65685 1 7 2.34315 7 4L 9 4C 9 1.23858 6.76142 -1 4 -1L 4 1Z"/>
</defs>
</svg>
