<svg width="18" height="18" viewBox="0 0 18 18" version="1.1" xmlns="http://www.w3.org/2000/svg" xmlns:xlink="http://www.w3.org/1999/xlink">
<title>cart-v2</title>
<desc>Created using Figma</desc>
<g id="Canvas" transform="translate(-89 -44)">
<g id="cart-v2">
<g id="icon">
<g id="basket">
<g id="Rectangle 16">
<use xlink:href="#path0_stroke" transform="translate(90 52)"/>
</g>
</g>
<g id="Ellipse 3">
<use xlink:href="#path1_stroke" transform="translate(94 45)"/>
</g>
</g>
</g>
</g>
<defs>
<path id="path0_stroke" d="M 16.9487 0.316228C 17.1233 -0.207716 16.8402 -0.774036 16.3162 -0.948683C 15.7923 -1.12333 15.226 -0.840171 15.0513 -0.316228L 16.9487 0.316228ZM 13 9L 13 10C 13.4304 10 13.8126 9.72457 13.9487 9.31623L 13 9ZM 2.05132 9.31623C 2.22596 9.84017 2.79228 10.1233 3.31623 9.94868C 3.84017 9.77404 4.12333 9.20772 3.94868 8.68377L 2.05132 9.31623ZM 0.948683 -0.316228C 0.774036 -0.840171 0.207716 -1.12333 -0.316228 -0.948683C -0.840171 -0.774036 -1.12333 -0.207716 -0.948683 0.316228L 0.948683 -0.316228ZM 6.05132 9.31623C 6.22596 9.84017 6.79228 10.1233 7.31623 9.94868C 7.84017 9.77404 8.12333 9.20772 7.94868 8.68377L 6.05132 9.31623ZM 4.94868 -0.316228C 4.77404 -0.840171 4.20772 -1.12333 3.68377 -0.948683C 3.15983 -0.774036 2.87667 -0.207716 3.05132 0.316228L 4.94868 -0.316228ZM 11 9L 10.0513 9.31623C 10.1874 9.72457 10.5696 10 11 10L 11 9ZM 8.94868 -0.316228C 8.77404 -0.840171 8.20772 -1.12333 7.68377 -0.948683C 7.15983 -0.774036 6.87667 -0.207716 7.05132 0.316228L 8.94868 -0.316228ZM 15.0513 -0.316228L 12.0513 8.68377L 13.9487 9.31623L 16.9487 0.316228L 15.0513 -0.316228ZM 3.94868 8.68377L 0.948683 -0.316228L -0.948683 0.316228L 2.05132 9.31623L 3.94868 8.68377ZM 7.94868 8.68377L 4.94868 -0.316228L 3.05132 0.316228L 6.05132 9.31623L 7.94868 8.68377ZM 11.9487 8.68377L 8.94868 -0.316228L 7.05132 0.316228L 10.0513 9.31623L 11.9487 8.68377ZM 13 8L 11 8L 11 10L 13 10L 13 8Z"/>
<path id="path1_stroke" d="M -1 4C -1 4.55228 -0.552285 5 0 5C 0.552285 5 1 4.55228 1 4L -1 4ZM 7 4C 7 4.55228 7.44772 5 8 5C 8.55229 5 9 4.55228 9 4L 7 4ZM 1 4C 1 2.34315 2.34315 1 4 1L 4 -1C 1.23858 -1 -1 1.23858 -1 4L 1 4ZM 4 1C 5.65685 1 7 2.34315 7 4L 9 4C 9 1.23858 6.76142 -1 4 -1L 4 1Z"/>
</defs>
</svg>
