<svg width="18" height="18" viewBox="0 0 18 18" version="1.1" xmlns="http://www.w3.org/2000/svg" xmlns:xlink="http://www.w3.org/1999/xlink">
<title>compare</title>
<desc>Created using Figma</desc>
<g id="Canvas" transform="translate(-23 0)">
<g id="compare">
<g id="icon">
<g id="Vector 6">
<use xlink:href="#path0_stroke" transform="translate(27 2.5)"/>
</g>
<g id="Vector 6">
<use xlink:href="#path0_stroke" transform="matrix(-1 1.22465e-16 -1.22465e-16 -1 37 16.5)"/>
</g>
</g>
</g>
</g>
<defs>
<path id="path0_stroke" d="M 0 2.5C -0.552285 2.5 -1 2.94772 -1 3.5C -1 4.05228 -0.552285 4.5 0 4.5L 0 2.5ZM 11 3.5L 11.7071 4.20711L 12.4142 3.5L 11.7071 2.79289L 11 3.5ZM 6.79289 6.29289C 6.40237 6.68342 6.40237 7.31658 6.79289 7.70711C 7.18342 8.09763 7.81658 8.09763 8.20711 7.70711L 6.79289 6.29289ZM 8.20711 -0.707107C 7.81658 -1.09763 7.18342 -1.09763 6.79289 -0.707107C 6.40237 -0.316583 6.40237 0.316583 6.79289 0.707107L 8.20711 -0.707107ZM 0 4.5L 11 4.5L 11 2.5L 0 2.5L 0 4.5ZM 10.2929 2.79289L 6.79289 6.29289L 8.20711 7.70711L 11.7071 4.20711L 10.2929 2.79289ZM 11.7071 2.79289L 8.20711 -0.707107L 6.79289 0.707107L 10.2929 4.20711L 11.7071 2.79289Z"/>
</defs>
</svg>
