<svg width="18" height="18" viewBox="0 0 18 18" version="1.1" xmlns="http://www.w3.org/2000/svg" xmlns:xlink="http://www.w3.org/1999/xlink">
<title>consumables</title>
<desc>Created using Figma</desc>
<g id="Canvas" transform="translate(-221 0)">
<clipPath id="clip-0" clip-rule="evenodd">
<path d="M 221 0L 239 0L 239 18L 221 18L 221 0Z" fill="#FFFFFF"/>
</clipPath>
<g id="consumables" clip-path="url(#clip-0)">
<g id="Ellipse 6">
<use xlink:href="#path0_stroke" transform="translate(223 5)"/>
</g>
<g id="Vector 9">
<use xlink:href="#path1_stroke" transform="translate(225 2)"/>
</g>
</g>
</g>
<defs>
<path id="path0_stroke" d="M 2.66667 0L 3.37377 -0.707107C 3.18624 -0.894643 2.93188 -1 2.66667 -1C 2.40145 -1 2.1471 -0.894643 1.95956 -0.707107L 2.66667 0ZM 0.5 3.17511L -0.417451 2.77726L 0.5 3.17511ZM 4.33333 5.33333C 4.33333 6.25381 3.58714 7 2.66667 7L 2.66667 9C 4.69171 9 6.33333 7.35838 6.33333 5.33333L 4.33333 5.33333ZM 2.66667 7C 1.74619 7 1 6.25381 1 5.33333L -1 5.33333C -1 7.35838 0.641622 9 2.66667 9L 2.66667 7ZM 2.66667 0C 1.95956 0.707107 1.9594 0.706944 1.95924 0.706791C 1.95921 0.706754 1.95906 0.706611 1.95899 0.706536C 1.95902 0.706571 1.95859 0.706132 1.95866 0.706203C 1.95857 0.706113 1.95853 0.706075 1.9587 0.706249C 1.95951 0.707066 1.96 0.70756 1.96158 0.709159C 1.96566 0.713304 1.97021 0.717953 1.97801 0.72602C 1.99552 0.744106 2.01793 0.767512 2.05019 0.80211C 2.11865 0.875427 2.20865 0.974303 2.32408 1.10912C 2.56316 1.38783 2.85945 1.75692 3.16795 2.22137C 3.80141 3.17156 4.33333 4.30058 4.33333 5.33333L 6.33333 5.33333C 6.33333 3.69942 5.53192 2.16177 4.83205 1.11197C 4.47389 0.576414 4.10351 0.112165 3.84259 -0.192458C 3.70801 -0.349303 3.58968 -0.479593 3.51231 -0.562527C 3.47165 -0.606054 3.43677 -0.642544 3.41522 -0.664822C 3.40349 -0.676937 3.39307 -0.687588 3.38706 -0.693696C 3.38358 -0.697224 3.38025 -0.700596 3.3785 -0.702363C 3.37739 -0.703481 3.3762 -0.704671 3.37565 -0.705229C 3.37525 -0.705624 3.37478 -0.706095 3.37459 -0.706292C 3.37443 -0.706448 3.37423 -0.706652 3.37415 -0.70673C 3.37396 -0.706924 3.37377 -0.707107 2.66667 0ZM 1 5.33333C 0.990896 4.7297 1.14727 4.18993 1.41745 3.57296L -0.417451 2.77726C -0.738488 3.52366 -0.990896 4.46043 -1 5.33333L 1 5.33333ZM 1.41745 3.57296C 1.76174 2.76774 2.23553 2.08051 2.66165 1.53453C 2.86862 1.26844 3.04402 1.06558 3.17977 0.914936C 3.24474 0.842732 3.29269 0.79155 3.32927 0.753161C 3.34617 0.735413 3.35717 0.724072 3.36614 0.714885C 3.36995 0.710986 3.37183 0.709082 3.3738 0.707086C 3.37445 0.706428 3.37511 0.70577 3.37477 0.706107C 3.37477 0.706107 3.37452 0.706357 3.37452 0.706358C 3.3746 0.706275 3.37417 0.706711 3.37421 0.70667C 3.37415 0.706732 3.37404 0.706842 3.37401 0.706873C 3.37389 0.706987 3.37377 0.707107 2.66667 0C 1.95956 -0.707107 1.95943 -0.706976 1.95929 -0.706841C 1.95924 -0.706788 1.9591 -0.706647 1.959 -0.706542C 1.95887 -0.706416 1.95856 -0.706101 1.9583 -0.705848C 1.95797 -0.70551 1.95721 -0.704749 1.95653 -0.704072C 1.95552 -0.703054 1.9535 -0.701012 1.95148 -0.698977C 1.94813 -0.695587 1.94209 -0.689442 1.93549 -0.682693C 1.92366 -0.670583 1.90395 -0.650225 1.8812 -0.626364C 1.83851 -0.581535 1.77148 -0.509859 1.69364 -0.423505C 1.54379 -0.257037 1.3223 2.27764e-05 1.08412 0.305137C 0.619952 0.901565 0.0104114 1.80189 -0.417451 2.77726L 1.41745 3.57296Z"/>
<path id="path1_stroke" d="M 11 14L 11 15C 11.5523 15 12 14.5523 12 14L 11 14ZM 0 -1C -0.552285 -1 -1 -0.552285 -1 0C -1 0.552285 -0.552285 1 0 1L 0 -1ZM 6 0L 6.70711 -0.707107C 6.51957 -0.894643 6.26522 -1 6 -1L 6 0ZM 11 5L 12 5C 12 4.73478 11.8946 4.48043 11.7071 4.29289L 11 5ZM 6 5L 5 5C 5 5.55228 5.44772 6 6 6L 6 5ZM 0 13C -0.552285 13 -1 13.4477 -1 14C -1 14.5523 -0.552285 15 0 15L 0 13ZM 6 -1L 0 -1L 0 1L 6 1L 6 -1ZM 12 14L 12 5L 10 5L 10 14L 12 14ZM 5.29289 0.707107L 10.2929 5.70711L 11.7071 4.29289L 6.70711 -0.707107L 5.29289 0.707107ZM 5 0L 5 5L 7 5L 7 0L 5 0ZM 6 6L 11 6L 11 4L 6 4L 6 6ZM 11 13L 0 13L 0 15L 11 15L 11 13Z"/>
</defs>
</svg>
