<svg width="18" height="18" viewBox="0 0 18 18" version="1.1" xmlns="http://www.w3.org/2000/svg" xmlns:xlink="http://www.w3.org/1999/xlink">
<title>controller</title>
<desc>Created using Figma</desc>
<g id="Canvas" transform="translate(-331 0)">
<clipPath id="clip-0" clip-rule="evenodd">
<path d="M 331 0L 349 0L 349 18L 331 18L 331 0Z" fill="#FFFFFF"/>
</clipPath>
<g id="controller" clip-path="url(#clip-0)">
<g id="Vector 12">
<use xlink:href="#path0_stroke" transform="translate(334 3)"/>
</g>
</g>
</g>
<defs>
<path id="path0_stroke" d="M 1 6C 1 5.44772 0.552285 5 0 5C -0.552285 5 -1 5.44772 -1 6L 1 6ZM 0 12L -1 12C -1 12.5523 -0.552285 13 2.22045e-16 13L 0 12ZM 3 12L 3 13C 3.55228 13 4 12.5523 4 12L 3 12ZM 3 6L 3 5C 2.44772 5 2 5.44772 2 6L 3 6ZM 6 6L 7 6C 7 5.44772 6.55228 5 6 5L 6 6ZM 6 12L 5 12C 5 12.5523 5.44772 13 6 13L 6 12ZM 9 3L 10 3C 10 2.44772 9.55229 2 9 2L 9 3ZM 0 3L -1 3C -1 3.55228 -0.552285 4 2.22045e-16 4L 0 3ZM 0 0L 0 -1C -0.552285 -1 -1 -0.552285 -1 2.22045e-16L 0 0ZM 12 0L 13 0C 13 -0.552285 12.5523 -1 12 -1L 12 0ZM 11 6C 11 6.55228 11.4477 7 12 7C 12.5523 7 13 6.55228 13 6L 11 6ZM 12 12L 12 13C 12.5523 13 13 12.5523 13 12L 12 12ZM 9 9L 8 9C 8 9.55229 8.44771 10 9 10L 9 9ZM 12 9L 13 9C 13 8.44771 12.5523 8 12 8L 12 9ZM -1 6L -1 12L 1 12L 1 6L -1 6ZM 0 13L 3 13L 3 11L 0 11L 0 13ZM 4 12L 4 6L 2 6L 2 12L 4 12ZM 3 7L 6 7L 6 5L 3 5L 3 7ZM 5 6L 5 12L 7 12L 7 6L 5 6ZM 6 13L 9 13L 9 11L 6 11L 6 13ZM 9 2L 0 2L 0 4L 9 4L 9 2ZM 1 3L 1 0L -1 0L -1 3L 1 3ZM 0 1L 12 1L 12 -1L 0 -1L 0 1ZM 11 0L 11 6L 13 6L 13 0L 11 0ZM 9 13L 12 13L 12 11L 9 11L 9 13ZM 10 6L 10 3L 8 3L 8 6L 10 6ZM 10 9L 10 6L 8 6L 8 9L 10 9ZM 13 12L 13 9L 11 9L 11 12L 13 12ZM 12 8L 9 8L 9 10L 12 10L 12 8Z"/>
</defs>
</svg>
