<svg width="18" height="18" viewBox="0 0 18 18" version="1.1" xmlns="http://www.w3.org/2000/svg" xmlns:xlink="http://www.w3.org/1999/xlink">
<title>detail-view</title>
<desc>Created using Figma</desc>
<g id="Canvas" transform="translate(-1 0)">
<g id="detail-view">
<g id="icon">
<g id="Ellipse">
<mask id="mask0_outline_ins">
<use xlink:href="#path0_fill" fill="white" transform="translate(3 8)"/>
</mask>
<g mask="url(#mask0_outline_ins)">
<use xlink:href="#path1_stroke_2x" transform="translate(3 8)"/>
</g>
</g>
<g id="Vector">
<use xlink:href="#path2_stroke" transform="translate(3 14.5)"/>
</g>
<g id="Vector 2">
<use xlink:href="#path3_stroke" transform="matrix(1 -2.6534e-16 2.26089e-16 1 4 3)"/>
</g>
<g id="Vector 2">
<use xlink:href="#path3_stroke" transform="matrix(1 -2.6534e-16 2.26089e-16 1 4 6)"/>
</g>
<g id="Vector 2">
<use xlink:href="#path4_stroke" transform="translate(13 12)"/>
</g>
<g id="Vector 2">
<use xlink:href="#path5_stroke" transform="translate(12 9)"/>
</g>
</g>
</g>
</g>
<defs>
<path id="path0_fill" d="M 8 4C 8 6.20914 6.20914 8 4 8C 1.79086 8 0 6.20914 0 4C 0 1.79086 1.79086 0 4 0C 6.20914 0 8 1.79086 8 4Z"/>
<path id="path1_stroke_2x" d="M 6 4C 6 5.10457 5.10457 6 4 6L 4 10C 7.31371 10 10 7.31371 10 4L 6 4ZM 4 6C 2.89543 6 2 5.10457 2 4L -2 4C -2 7.31371 0.686292 10 4 10L 4 6ZM 2 4C 2 2.89543 2.89543 2 4 2L 4 -2C 0.686292 -2 -2 0.686292 -2 4L 2 4ZM 4 2C 5.10457 2 6 2.89543 6 4L 10 4C 10 0.686292 7.31371 -2 4 -2L 4 2Z"/>
<path id="path2_stroke" d="M 2.20711 0.707107C 2.59763 0.316583 2.59763 -0.316583 2.20711 -0.707107C 1.81658 -1.09763 1.18342 -1.09763 0.792893 -0.707107L 2.20711 0.707107ZM -0.707107 0.792893C -1.09763 1.18342 -1.09763 1.81658 -0.707107 2.20711C -0.316583 2.59763 0.316583 2.59763 0.707107 2.20711L -0.707107 0.792893ZM 0.792893 -0.707107L -0.707107 0.792893L 0.707107 2.20711L 2.20711 0.707107L 0.792893 -0.707107Z"/>
<path id="path3_stroke" d="M 0 -1C -0.552285 -1 -1 -0.552285 -1 0C -1 0.552285 -0.552285 1 0 1L 0 -1ZM 12 1C 12.5523 1 13 0.552285 13 0C 13 -0.552285 12.5523 -1 12 -1L 12 1ZM 0 1L 12 1L 12 -1L 0 -1L 0 1Z"/>
<path id="path4_stroke" d="M 0 -1C -0.552285 -1 -1 -0.552285 -1 0C -1 0.552285 -0.552285 1 0 1L 0 -1ZM 3 1C 3.55228 1 4 0.552285 4 0C 4 -0.552285 3.55228 -1 3 -1L 3 1ZM 0 1L 3 1L 3 -1L 0 -1L 0 1Z"/>
<path id="path5_stroke" d="M 0 -1C -0.552285 -1 -1 -0.552285 -1 0C -1 0.552285 -0.552285 1 0 1L 0 -1ZM 4 1C 4.55228 1 5 0.552285 5 0C 5 -0.552285 4.55228 -1 4 -1L 4 1ZM 0 1L 4 1L 4 -1L 0 -1L 0 1Z"/>
</defs>
</svg>
