<svg width="18" height="18" viewBox="0 0 18 18" version="1.1" xmlns="http://www.w3.org/2000/svg" xmlns:xlink="http://www.w3.org/1999/xlink">
<title>edit</title>
<desc>Created using Figma</desc>
<g id="Canvas" transform="translate(-488 0)">
<clipPath id="clip-0" clip-rule="evenodd">
<path d="M 488 0L 506 0L 506 18L 488 18L 488 0Z" fill="#FFFFFF"/>
</clipPath>
<g id="edit" clip-path="url(#clip-0)">
<g id="Vector 2">
<mask id="mask0_outline_ins">
<use xlink:href="#path0_fill" fill="white" transform="matrix(0.707107 0.707107 -0.707107 0.707107 500 2)"/>
</mask>
<g mask="url(#mask0_outline_ins)">
<use xlink:href="#path1_stroke_2x" transform="matrix(0.707107 0.707107 -0.707107 0.707107 500 2)"/>
</g>
</g>
</g>
</g>
<defs>
<path id="path0_fill" d="M 2.82843 15.5563L 0 12.7279L 0 0.969697L 0.539485 0.795318C 2.13908 0.278276 3.86092 0.278276 5.46052 0.795318L 6 0.969697L 5.65685 12.7279L 2.82843 15.5563Z"/>
<path id="path1_stroke_2x" d="M 6.10407 11.8335C 4.042 10.8025 1.61485 10.8025 -0.447214 11.8335L 0.447214 13.6223C 1.94622 12.8728 3.71063 12.8728 5.20964 13.6223L 6.10407 11.8335ZM 0 12.7279L -2 12.7279L -2 13.5563L -1.41421 14.1421L 0 12.7279ZM 2.82843 15.5563L 1.41421 16.9706L 2.82843 18.3848L 4.24264 16.9706L 2.82843 15.5563ZM 5.65685 12.7279L 7.07107 14.1421L 7.63283 13.5804L 7.656 12.7863L 5.65685 12.7279ZM 6 0.969697L 7.99915 1.02804L 8.04292 -0.471849L 6.61513 -0.933358L 6 0.969697ZM 0 0.969697L -0.615129 -0.933358L -2 -0.485722L -2 0.969697L 0 0.969697ZM 5.46052 0.795318L 4.84539 2.69837L 5.46052 0.795318ZM 0.539485 0.795318L 1.15461 2.69837L 0.539485 0.795318ZM -1.41421 14.1421L 1.41421 16.9706L 4.24264 14.1421L 1.41421 11.3137L -1.41421 14.1421ZM 4.24264 16.9706L 7.07107 14.1421L 4.24264 11.3137L 1.41421 14.1421L 4.24264 16.9706ZM 7.656 12.7863L 7.99915 1.02804L 4.00085 0.911355L 3.65771 12.6696L 7.656 12.7863ZM -2 0.969697L -2 12.7279L 2 12.7279L 2 0.969697L -2 0.969697ZM 6.61513 -0.933358L 6.07564 -1.10774L 4.84539 2.69837L 5.38487 2.87275L 6.61513 -0.933358ZM -0.0756438 -1.10774L -0.615129 -0.933358L 0.615129 2.87275L 1.15461 2.69837L -0.0756438 -1.10774ZM 6.07564 -1.10774C 4.17228 -1.69734 1.82772 -1.69734 -0.0756438 -1.10774L 1.15461 2.69837C 2.45045 2.25389 3.54955 2.25389 4.84539 2.69837L 6.07564 -1.10774Z"/>
</defs>
</svg>
