<svg width="18" height="18" viewBox="0 0 18 18" version="1.1" xmlns="http://www.w3.org/2000/svg" xmlns:xlink="http://www.w3.org/1999/xlink">
<title>framework</title>
<desc>Created using Figma</desc>
<g id="Canvas" transform="translate(-353 0)">
<clipPath id="clip-0" clip-rule="evenodd">
<path d="M 353 0L 371 0L 371 18L 353 18L 353 0Z" fill="#FFFFFF"/>
</clipPath>
<g id="framework" clip-path="url(#clip-0)">
<g id="Polygon 2">
<mask id="mask0_outline_ins">
<use xlink:href="#path0_fill" fill="white" transform="translate(355 1)"/>
</mask>
<g mask="url(#mask0_outline_ins)">
<use xlink:href="#path1_stroke_2x" transform="translate(355 1)"/>
</g>
</g>
</g>
</g>
<defs>
<path id="path0_fill" d="M 7 0L 14 4L 14 12L 7 16L 0 12L 0 4L 7 0Z"/>
<path id="path1_stroke_2x" d="M 14.4961 4.86824C 14.9757 4.59423 15.1423 3.98338 14.8682 3.50386C 14.5942 3.02434 13.9834 2.85775 13.5039 3.13176L 14.4961 4.86824ZM 0.496139 3.13176C 0.0166215 2.85775 -0.594233 3.02434 -0.868243 3.50386C -1.14225 3.98338 -0.975656 4.59423 -0.496139 4.86824L 0.496139 3.13176ZM 6 11.5C 6 12.0523 6.44772 12.5 7 12.5C 7.55228 12.5 8 12.0523 8 11.5L 6 11.5ZM -0.496139 4.86824L 3.00386 6.86824L 3.99614 5.13176L 0.496139 3.13176L -0.496139 4.86824ZM 3.00386 6.86824L 6.50386 8.86824L 7.49614 7.13176L 3.99614 5.13176L 3.00386 6.86824ZM 7.49614 8.86824L 14.4961 4.86824L 13.5039 3.13176L 6.50386 7.13176L 7.49614 8.86824ZM 6 8L 6 11.5L 8 11.5L 8 8L 6 8ZM 7 0L 7.99228 -1.73649L 7 -2.3035L 6.00772 -1.73649L 7 0ZM 14 4L 16 4L 16 2.83935L 14.9923 2.26351L 14 4ZM 14 12L 14.9923 13.7365L 16 13.1606L 16 12L 14 12ZM 7 16L 6.00772 17.7365L 7 18.3035L 7.99228 17.7365L 7 16ZM 0 12L -2 12L -2 13.1606L -0.992278 13.7365L 0 12ZM 0 4L -0.992278 2.26351L -2 2.83935L -2 4L 0 4ZM 6.00772 1.73649L 13.0077 5.73649L 14.9923 2.26351L 7.99228 -1.73649L 6.00772 1.73649ZM 12 4L 12 12L 16 12L 16 4L 12 4ZM 13.0077 10.2635L 6.00772 14.2635L 7.99228 17.7365L 14.9923 13.7365L 13.0077 10.2635ZM 7.99228 14.2635L 0.992278 10.2635L -0.992278 13.7365L 6.00772 17.7365L 7.99228 14.2635ZM 2 12L 2 4L -2 4L -2 12L 2 12ZM 0.992278 5.73649L 7.99228 1.73649L 6.00772 -1.73649L -0.992278 2.26351L 0.992278 5.73649Z"/>
</defs>
</svg>
