<svg width="18" height="18" viewBox="0 0 18 18" version="1.1" xmlns="http://www.w3.org/2000/svg" xmlns:xlink="http://www.w3.org/1999/xlink">
<title>grid-view</title>
<desc>Created using Figma</desc>
<g id="Canvas" transform="translate(-446 0)">
<g id="grid-view">
<g id="Rectangle 3">
<mask id="mask0_outline_ins">
<use xlink:href="#path0_fill" fill="white" transform="translate(448 2)"/>
</mask>
<g mask="url(#mask0_outline_ins)">
<use xlink:href="#path1_stroke_2x" transform="translate(448 2)"/>
</g>
</g>
<g id="Rectangle 3">
<mask id="mask1_outline_ins">
<use xlink:href="#path0_fill" fill="white" transform="translate(456 2)"/>
</mask>
<g mask="url(#mask1_outline_ins)">
<use xlink:href="#path1_stroke_2x" transform="translate(456 2)"/>
</g>
</g>
<g id="Rectangle 3">
<mask id="mask2_outline_ins">
<use xlink:href="#path0_fill" fill="white" transform="translate(448 10)"/>
</mask>
<g mask="url(#mask2_outline_ins)">
<use xlink:href="#path1_stroke_2x" transform="translate(448 10)"/>
</g>
</g>
<g id="Rectangle 3">
<mask id="mask3_outline_ins">
<use xlink:href="#path0_fill" fill="white" transform="translate(456 10)"/>
</mask>
<g mask="url(#mask3_outline_ins)">
<use xlink:href="#path1_stroke_2x" transform="translate(456 10)"/>
</g>
</g>
</g>
</g>
<defs>
<path id="path0_fill" d="M 0 1C 0 0.447715 0.447715 0 1 0L 5 0C 5.55228 0 6 0.447715 6 1L 6 5C 6 5.55228 5.55228 6 5 6L 1 6C 0.447715 6 0 5.55228 0 5L 0 1Z"/>
<path id="path1_stroke_2x" d="M 1 2L 5 2L 5 -2L 1 -2L 1 2ZM 4 1L 4 5L 8 5L 8 1L 4 1ZM 5 4L 1 4L 1 8L 5 8L 5 4ZM 2 5L 2 1L -2 1L -2 5L 2 5ZM 1 -2C -0.656854 -2 -2 -0.656854 -2 1L 2 1C 2 1.55228 1.55228 2 1 2L 1 -2ZM 5 2C 4.44772 2 4 1.55228 4 1L 8 1C 8 -0.656854 6.65685 -2 5 -2L 5 2ZM 4 5C 4 4.44772 4.44772 4 5 4L 5 8C 6.65685 8 8 6.65685 8 5L 4 5ZM 1 4C 1.55228 4 2 4.44772 2 5L -2 5C -2 6.65685 -0.656854 8 1 8L 1 4Z"/>
</defs>
</svg>
