<svg width="18" height="18" viewBox="0 0 18 18" version="1.1" xmlns="http://www.w3.org/2000/svg" xmlns:xlink="http://www.w3.org/1999/xlink">
<title>hardware</title>
<desc>Created using Figma</desc>
<g id="Canvas" transform="translate(-309 0)">
<clipPath id="clip-0" clip-rule="evenodd">
<path d="M 309 0L 327 0L 327 18L 309 18L 309 0Z" fill="#FFFFFF"/>
</clipPath>
<g id="hardware" clip-path="url(#clip-0)">
<g id="Vector 10">
<use xlink:href="#path0_stroke" transform="translate(315 1)"/>
</g>
<g id="Vector 10">
<use xlink:href="#path0_stroke" transform="translate(318 1)"/>
</g>
<g id="Vector 10">
<use xlink:href="#path0_stroke" transform="translate(321 1)"/>
</g>
<g id="Vector 10">
<use xlink:href="#path0_stroke" transform="translate(315 16)"/>
</g>
<g id="Vector 10">
<use xlink:href="#path0_stroke" transform="translate(318 16)"/>
</g>
<g id="Vector 10">
<use xlink:href="#path0_stroke" transform="translate(321 16)"/>
</g>
<g id="Rectangle 6">
<use xlink:href="#path1_stroke" transform="translate(314 5)"/>
</g>
</g>
</g>
<defs>
<path id="path0_stroke" d="M -1 1C -1 1.55228 -0.552285 2 0 2C 0.552285 2 1 1.55228 1 1L -1 1ZM 1 0C 1 -0.552285 0.552285 -1 0 -1C -0.552285 -1 -1 -0.552285 -1 0L 1 0ZM 1 1L 1 0L -1 0L -1 1L 1 1Z"/>
<path id="path1_stroke" d="M 0 0L 0 -1C -0.552285 -1 -1 -0.552285 -1 2.22045e-16L 0 0ZM 8 0L 9 0C 9 -0.552285 8.55229 -1 8 -1L 8 0ZM 8 8L 8 9C 8.55229 9 9 8.55229 9 8L 8 8ZM 0 8L -1 8C -1 8.55229 -0.552285 9 2.22045e-16 9L 0 8ZM 0 1L 8 1L 8 -1L 0 -1L 0 1ZM 7 0L 7 8L 9 8L 9 0L 7 0ZM 8 7L 0 7L 0 9L 8 9L 8 7ZM 1 8L 1 0L -1 0L -1 8L 1 8Z"/>
</defs>
</svg>
