<svg width="18" height="18" viewBox="0 0 18 18" version="1.1" xmlns="http://www.w3.org/2000/svg" xmlns:xlink="http://www.w3.org/1999/xlink">
<title>like</title>
<desc>Created using Figma</desc>
<g id="Canvas" transform="translate(-67 0)">
<g id="like">
<g id="icon">
<mask id="mask0_outline_ins">
<use xlink:href="#path0_fill" fill="white" transform="translate(67.0072 0.992944)"/>
</mask>
<g mask="url(#mask0_outline_ins)">
<use xlink:href="#path1_stroke_2x" transform="translate(67.0072 0.992944)"/>
</g>
</g>
</g>
</g>
<defs>
<path id="path0_fill" fill-rule="evenodd" d="M 1.43839 1.4245C -0.470131 3.33303 -0.480782 6.43794 1.41461 8.35951L 2.12862 9.08338L 2.10956 9.1027L 4.90658 11.8997L 8.9648 16.014L 8.99283 15.986L 9.02094 16.0141L 13.0907 11.8881L 15.8762 9.10262L 15.8572 9.08338L 16.5711 8.35959C 18.4665 6.43802 18.4559 3.33311 16.5473 1.42458C 14.6388 -0.483943 11.5551 -0.473366 9.65974 1.44821L 8.99291 2.12425L 8.326 1.44813C 6.4306 -0.473446 3.34692 -0.484022 1.43839 1.4245Z"/>
<path id="path1_stroke_2x" d="M 1.41461 8.35951L 2.83849 6.95503L 2.83849 6.95503L 1.41461 8.35951ZM 1.43839 1.4245L 0.024181 0.0102885L 0.0241783 0.0102913L 1.43839 1.4245ZM 2.12862 9.08338L 3.55246 10.4879L 4.93788 9.08342L 3.5525 7.6789L 2.12862 9.08338ZM 2.10956 9.1027L 0.685714 7.69818L -0.709239 9.11233L 0.695345 10.5169L 2.10956 9.1027ZM 4.90658 11.8997L 6.33049 10.4952L 6.32079 10.4855L 4.90658 11.8997ZM 8.9648 16.014L 7.54092 17.4185L 8.95511 18.8522L 10.3791 17.4282L 8.9648 16.014ZM 8.99283 15.986L 10.407 14.5717L 8.99273 13.1575L 7.57857 14.5718L 8.99283 15.986ZM 9.02094 16.0141L 7.60678 17.4283L 9.03073 18.8522L 10.4448 17.4186L 9.02094 16.0141ZM 13.0907 11.8881L 11.6764 10.4739L 11.6668 10.4836L 13.0907 11.8881ZM 15.8762 9.10262L 17.2904 10.5168L 18.695 9.11218L 17.3 7.69804L 15.8762 9.10262ZM 15.8572 9.08338L 14.4333 7.6789L 13.0479 9.08348L 14.4334 10.488L 15.8572 9.08338ZM 16.5711 8.35959L 17.995 9.76407L 17.995 9.76407L 16.5711 8.35959ZM 16.5473 1.42458L 15.1331 2.8388L 15.1331 2.8388L 16.5473 1.42458ZM 9.65974 1.44821L 8.23586 0.0437256L 8.23586 0.0437308L 9.65974 1.44821ZM 8.99291 2.12425L 7.56903 3.52874L 8.99292 4.97229L 10.4168 3.52873L 8.99291 2.12425ZM 8.326 1.44813L 6.90212 2.85261L 6.90212 2.85261L 8.326 1.44813ZM 2.83849 6.95503C 1.71501 5.81603 1.72134 3.96998 2.85261 2.83872L 0.0241783 0.0102913C -2.66161 2.69608 -2.67658 7.05984 -0.00926788 9.76399L 2.83849 6.95503ZM 3.5525 7.6789L 2.83849 6.95503L -0.00926887 9.76399L 0.704736 10.4879L 3.5525 7.6789ZM 3.5334 10.5072L 3.55246 10.4879L 0.704772 7.67886L 0.685714 7.69818L 3.5334 10.5072ZM 6.32079 10.4855L 3.52377 7.68848L 0.695345 10.5169L 3.49237 13.3139L 6.32079 10.4855ZM 10.3887 14.6095L 6.33046 10.4952L 3.4827 13.3042L 7.54092 17.4185L 10.3887 14.6095ZM 7.57857 14.5718L 7.55054 14.5998L 10.3791 17.4282L 10.4071 17.4001L 7.57857 14.5718ZM 10.4351 14.5998L 10.407 14.5717L 7.57866 17.4002L 7.60678 17.4283L 10.4351 14.5998ZM 11.6668 10.4836L 7.59706 14.6096L 10.4448 17.4186L 14.5146 13.2926L 11.6668 10.4836ZM 14.462 7.68841L 11.6765 10.4739L 14.5049 13.3023L 17.2904 10.5168L 14.462 7.68841ZM 14.4334 10.488L 14.4524 10.5072L 17.3 7.69804L 17.281 7.67879L 14.4334 10.488ZM 15.1473 6.95511L 14.4333 7.6789L 17.2811 10.4879L 17.995 9.76407L 15.1473 6.95511ZM 15.1331 2.8388C 16.2644 3.97006 16.2707 5.81611 15.1472 6.95511L 17.995 9.76407C 20.6623 7.05992 20.6473 2.69616 17.9616 0.010367L 15.1331 2.8388ZM 11.0836 2.85269C 12.1996 1.72132 14.0094 1.71511 15.1331 2.8388L 17.9616 0.0103697C 15.2682 -2.683 10.9107 -2.66805 8.23586 0.0437256L 11.0836 2.85269ZM 10.4168 3.52873L 11.0836 2.85268L 8.23586 0.0437308L 7.56903 0.719778L 10.4168 3.52873ZM 6.90212 2.85261L 7.56903 3.52874L 10.4168 0.719772L 9.74988 0.0436454L 6.90212 2.85261ZM 2.8526 2.83872C 3.9763 1.71503 5.78616 1.72124 6.90212 2.85261L 9.74988 0.0436464C 7.07505 -2.66813 2.71755 -2.68307 0.024181 0.0102885L 2.8526 2.83872Z"/>
</defs>
</svg>
