<svg width="18" height="18" viewBox="0 0 18 18" version="1.1" xmlns="http://www.w3.org/2000/svg" xmlns:xlink="http://www.w3.org/1999/xlink">
<title>list-view</title>
<desc>Created using Figma</desc>
<g id="Canvas" transform="translate(-467 0)">
<g id="list-view">
<g id="Rectangle 3">
<mask id="mask0_outline_ins">
<use xlink:href="#path0_fill" fill="white" transform="translate(469 2)"/>
</mask>
<g mask="url(#mask0_outline_ins)">
<use xlink:href="#path1_stroke_2x" transform="translate(469 2)"/>
</g>
</g>
<g id="Rectangle 3">
<mask id="mask1_outline_ins">
<use xlink:href="#path0_fill" fill="white" transform="translate(469 10)"/>
</mask>
<g mask="url(#mask1_outline_ins)">
<use xlink:href="#path1_stroke_2x" transform="translate(469 10)"/>
</g>
</g>
</g>
</g>
<defs>
<path id="path0_fill" d="M 0 1C 0 0.447715 0.447715 0 1 0L 13 0C 13.5523 0 14 0.447715 14 1L 14 5C 14 5.55228 13.5523 6 13 6L 1 6C 0.447715 6 0 5.55228 0 5L 0 1Z"/>
<path id="path1_stroke_2x" d="M 1 2L 13 2L 13 -2L 1 -2L 1 2ZM 12 1L 12 5L 16 5L 16 1L 12 1ZM 13 4L 1 4L 1 8L 13 8L 13 4ZM 2 5L 2 1L -2 1L -2 5L 2 5ZM 1 -2C -0.656854 -2 -2 -0.656854 -2 1L 2 1C 2 1.55228 1.55228 2 1 2L 1 -2ZM 13 2C 12.4477 2 12 1.55228 12 1L 16 1C 16 -0.656854 14.6569 -2 13 -2L 13 2ZM 12 5C 12 4.44772 12.4477 4 13 4L 13 8C 14.6569 8 16 6.65685 16 5L 12 5ZM 1 4C 1.55228 4 2 4.44772 2 5L -2 5C -2 6.65685 -0.656854 8 1 8L 1 4Z"/>
</defs>
</svg>
