<svg width="18" height="18" viewBox="0 0 18 18" version="1.1" xmlns="http://www.w3.org/2000/svg" xmlns:xlink="http://www.w3.org/1999/xlink">
<title>options</title>
<desc>Created using Figma</desc>
<g id="Canvas" transform="translate(-397 0)">
<clipPath id="clip-0" clip-rule="evenodd">
<path d="M 397 0L 415 0L 415 18L 397 18L 397 0Z" fill="#FFFFFF"/>
</clipPath>
<g id="options" clip-path="url(#clip-0)">
<g id="Ellipse 4">
<mask id="mask0_outline_ins">
<use xlink:href="#path0_fill" fill="white" transform="translate(398 1)"/>
</mask>
<g mask="url(#mask0_outline_ins)">
<use xlink:href="#path1_stroke_2x" transform="translate(398 1)"/>
</g>
</g>
<g id="Ellipse 9">
<use xlink:href="#path2_fill" transform="translate(405 5)"/>
</g>
<g id="Ellipse 9">
<use xlink:href="#path2_fill" transform="translate(405 8)"/>
</g>
<g id="Ellipse 9">
<use xlink:href="#path2_fill" transform="translate(405 11)"/>
</g>
</g>
</g>
<defs>
<path id="path0_fill" d="M 16 8C 16 12.4183 12.4183 16 8 16C 3.58172 16 0 12.4183 0 8C 0 3.58172 3.58172 0 8 0C 12.4183 0 16 3.58172 16 8Z"/>
<path id="path1_stroke_2x" d="M 14 8C 14 11.3137 11.3137 14 8 14L 8 18C 13.5228 18 18 13.5228 18 8L 14 8ZM 8 14C 4.68629 14 2 11.3137 2 8L -2 8C -2 13.5228 2.47715 18 8 18L 8 14ZM 2 8C 2 4.68629 4.68629 2 8 2L 8 -2C 2.47715 -2 -2 2.47715 -2 8L 2 8ZM 8 2C 11.3137 2 14 4.68629 14 8L 18 8C 18 2.47715 13.5228 -2 8 -2L 8 2Z"/>
<path id="path2_fill" d="M 2 1C 2 1.55228 1.55228 2 1 2C 0.447715 2 0 1.55228 0 1C 0 0.447715 0.447715 0 1 0C 1.55228 0 2 0.447715 2 1Z"/>
</defs>
</svg>
