<svg width="18" height="18" viewBox="0 0 18 18" version="1.1" xmlns="http://www.w3.org/2000/svg" xmlns:xlink="http://www.w3.org/1999/xlink">
<title>plus</title>
<desc>Created using Figma</desc>
<g id="Canvas" transform="translate(-243 0)">
<clipPath id="clip-0" clip-rule="evenodd">
<path d="M 243 0L 261 0L 261 18L 243 18L 243 0Z" fill="#FFFFFF"/>
</clipPath>
<g id="plus" clip-path="url(#clip-0)">
<g id="Vector 10">
<use xlink:href="#path0_stroke" transform="translate(246 9)"/>
</g>
<g id="Vector 10">
<use xlink:href="#path0_stroke" transform="matrix(2.77556e-17 -1 1 2.77556e-17 252 15)"/>
</g>
</g>
</g>
<defs>
<path id="path0_stroke" d="M 0 -1C -0.552285 -1 -1 -0.552285 -1 0C -1 0.552285 -0.552285 1 0 1L 0 -1ZM 12 1C 12.5523 1 13 0.552285 13 0C 13 -0.552285 12.5523 -1 12 -1L 12 1ZM 0 1L 12 1L 12 -1L 0 -1L 0 1Z"/>
</defs>
</svg>
