<svg width="20" height="18" viewBox="0 0 20 18" version="1.1" xmlns="http://www.w3.org/2000/svg" xmlns:xlink="http://www.w3.org/1999/xlink">
<title>preview</title>
<desc>Created using Figma</desc>
<g id="Canvas" transform="translate(-154 0)">
<g id="preview">
<g id="Vector">
<mask id="mask0_outline_out">
<rect id="mask0_outline_inv" fill="white" x="-2" y="-2" width="20" height="14" transform="translate(156 4)"/>
<use xlink:href="#path0_fill" fill="black" transform="translate(156 4)"/>
</mask>
<g mask="url(#mask0_outline_out)">
<use xlink:href="#path1_stroke_2x" transform="translate(156 4)"/>
</g>
</g>
<g id="Ellipse 5">
<mask id="mask1_outline_out">
<rect id="mask1_outline_inv" fill="white" x="-2" y="-2" width="8" height="8" transform="translate(162 7)"/>
<use xlink:href="#path2_fill" fill="black" transform="translate(162 7)"/>
</mask>
<g mask="url(#mask1_outline_out)">
<use xlink:href="#path3_stroke_2x" transform="translate(162 7)"/>
</g>
</g>
</g>
</g>
<defs>
<path id="path0_fill" d="M 8 0C 4.65732 0 1.92569 2.13868 0.698727 3.28839C 0.227849 3.72962 0 4.3547 0 5C 0 5.6453 0.227849 6.27038 0.698727 6.71161C 1.92569 7.86132 4.65732 10 8 10C 11.3427 10 14.0743 7.86132 15.3013 6.71161C 15.7722 6.27038 16 5.6453 16 5C 16 4.3547 15.7722 3.72962 15.3013 3.28839C 14.0743 2.13868 11.3427 0 8 0Z"/>
<path id="path1_stroke_2x" d="M 0.698727 3.28839L 2.06625 4.7478L 0.698727 3.28839ZM 15.3013 3.28839L 16.6688 1.82898L 16.6688 1.82897L 15.3013 3.28839ZM 15.3013 6.71161L 16.6688 8.17103L 16.6688 8.17102L 15.3013 6.71161ZM 0.698727 6.71161L -0.668794 8.17103L -0.668794 8.17103L 0.698727 6.71161ZM 2.06625 4.7478C 3.20948 3.67655 5.45518 2 8 2L 8 -2C 3.85945 -2 0.641897 0.600811 -0.668794 1.82897L 2.06625 4.7478ZM 8 2C 10.5448 2 12.7905 3.67655 13.9338 4.7478L 16.6688 1.82897C 15.3581 0.600811 12.1405 -2 8 -2L 8 2ZM 13.9338 5.2522C 12.7905 6.32345 10.5448 8 8 8L 8 12C 12.1405 12 15.3581 9.39919 16.6688 8.17103L 13.9338 5.2522ZM 8 8C 5.45518 8 3.20948 6.32345 2.06625 5.2522L -0.668794 8.17103C 0.641897 9.39919 3.85945 12 8 12L 8 8ZM -0.668794 1.82897C -1.60743 2.70851 -2 3.89636 -2 5L 2 5C 2 4.81304 2.06312 4.75073 2.06625 4.7478L -0.668794 1.82897ZM 13.9338 4.7478C 13.9369 4.75073 14 4.81304 14 5L 18 5C 18 3.89636 17.6074 2.70851 16.6688 1.82898L 13.9338 4.7478ZM 16.6688 8.17102C 17.6074 7.29149 18 6.10364 18 5L 14 5C 14 5.18696 13.9369 5.24927 13.9338 5.2522L 16.6688 8.17102ZM 2.06625 5.2522C 2.06312 5.24927 2 5.18696 2 5L -2 5C -2 6.10364 -1.60743 7.29149 -0.668794 8.17103L 2.06625 5.2522Z"/>
<path id="path2_fill" d="M 4 2C 4 3.10457 3.10457 4 2 4C 0.895431 4 0 3.10457 0 2C 0 0.895431 0.895431 0 2 0C 3.10457 0 4 0.895431 4 2Z"/>
<path id="path3_stroke_2x" d="M 2 2L 2 6C 4.20914 6 6 4.20914 6 2L 2 2ZM 2 2L -2 2C -2 4.20914 -0.209139 6 2 6L 2 2ZM 2 2L 2 -2C -0.209139 -2 -2 -0.209139 -2 2L 2 2ZM 2 2L 6 2C 6 -0.209139 4.20914 -2 2 -2L 2 2Z"/>
</defs>
</svg>
