<svg width="18" height="18" viewBox="0 0 18 18" version="1.1" xmlns="http://www.w3.org/2000/svg" xmlns:xlink="http://www.w3.org/1999/xlink">
<title>print</title>
<desc>Created using Figma</desc>
<g id="Canvas" transform="translate(-420 0)">
<clipPath id="clip-0" clip-rule="evenodd">
<path d="M 420 0L 438 0L 438 18L 420 18L 420 0Z" fill="#FFFFFF"/>
</clipPath>
<g id="print" clip-path="url(#clip-0)">
<g id="Rectangle 2">
<mask id="mask0_outline_ins">
<use xlink:href="#path0_fill" fill="white" transform="translate(421 8)"/>
</mask>
<g mask="url(#mask0_outline_ins)">
<use xlink:href="#path1_stroke_2x" transform="translate(421 8)"/>
</g>
</g>
<g id="Rectangle 2">
<use xlink:href="#path2_stroke" transform="translate(424 1)"/>
</g>
<g id="Vector 15">
<use xlink:href="#path3_stroke" transform="translate(434 6)"/>
</g>
<g id="Vector 14">
<use xlink:href="#path4_stroke" transform="translate(425 13)"/>
</g>
<g id="Rectangle 2">
<use xlink:href="#path5_stroke" transform="translate(429 1)"/>
</g>
</g>
</g>
<defs>
<path id="path0_fill" d="M 0 2C 0 0.895431 0.895431 0 2 0L 14 0C 15.1046 0 16 0.895431 16 2L 16 7C 16 8.10457 15.1046 9 14 9L 2 9C 0.895431 9 0 8.10457 0 7L 0 2Z"/>
<path id="path1_stroke_2x" d="M 2 2L 14 2L 14 -2L 2 -2L 2 2ZM 14 2L 14 7L 18 7L 18 2L 14 2ZM 14 7L 2 7L 2 11L 14 11L 14 7ZM 2 7L 2 2L -2 2L -2 7L 2 7ZM 2 -2C -0.209139 -2 -2 -0.209139 -2 2L 2 2L 2 -2ZM 14 2L 18 2C 18 -0.209139 16.2091 -2 14 -2L 14 2ZM 14 7L 14 11C 16.2091 11 18 9.20914 18 7L 14 7ZM 2 7L -2 7C -2 9.20914 -0.209139 11 2 11L 2 7Z"/>
<path id="path2_stroke" d="M 0 0L 0 -1C -0.552285 -1 -1 -0.552285 -1 2.22045e-16L 0 0ZM -1 8C -1 8.55229 -0.552285 9 0 9C 0.552285 9 1 8.55229 1 8L -1 8ZM 5 1C 5.55228 1 6 0.552285 6 0C 6 -0.552285 5.55228 -1 5 -1L 5 1ZM 1 8L 1 0L -1 0L -1 8L 1 8ZM 0 1L 5 1L 5 -1L 0 -1L 0 1Z"/>
<path id="path3_stroke" d="M -1 3C -1 3.55228 -0.552285 4 0 4C 0.552285 4 1 3.55228 1 3L -1 3ZM 1 0C 1 -0.552285 0.552285 -1 0 -1C -0.552285 -1 -1 -0.552285 -1 0L 1 0ZM 1 3L 1 0L -1 0L -1 3L 1 3Z"/>
<path id="path4_stroke" d="M 0 -1C -0.552285 -1 -1 -0.552285 -1 0C -1 0.552285 -0.552285 1 0 1L 0 -1ZM 1 1C 1.55228 1 2 0.552285 2 0C 2 -0.552285 1.55228 -1 1 -1L 1 1ZM 0 1L 1 1L 1 -1L 0 -1L 0 1Z"/>
<path id="path5_stroke" d="M 0 5L -1 5C -1 5.55228 -0.552285 6 2.22045e-16 6L 0 5ZM 0 0L 0.707107 -0.707107C 0.421109 -0.993105 -0.00900904 -1.07866 -0.382683 -0.92388C -0.756358 -0.769099 -1 -0.404462 -1 0L 0 0ZM 5 5L 5 6C 5.40446 6 5.7691 5.75636 5.92388 5.38268C 6.07866 5.00901 5.9931 4.57889 5.70711 4.29289L 5 5ZM -1 0L -1 5L 1 5L 1 0L -1 0ZM 0 6L 5 6L 5 4L 0 4L 0 6ZM -0.707107 0.707107L 4.29289 5.70711L 5.70711 4.29289L 0.707107 -0.707107L -0.707107 0.707107Z"/>
</defs>
</svg>
