<svg width="18" height="18" viewBox="0 0 18 18" version="1.1" xmlns="http://www.w3.org/2000/svg" xmlns:xlink="http://www.w3.org/1999/xlink">
<title>search</title>
<desc>Created using Figma</desc>
<g id="Canvas" transform="translate(-199 0)">
<clipPath id="clip-0" clip-rule="evenodd">
<path d="M 199 0L 217 0L 217 18L 199 18L 199 0Z" fill="#FFFFFF"/>
</clipPath>
<g id="search" clip-path="url(#clip-0)">
<g id="search-icon">
<g id="Ellipse 4">
<use xlink:href="#path0_stroke" transform="matrix(0.707107 0.707107 -0.707107 0.707107 210.192 0)"/>
</g>
<g id="Vector 8">
<use xlink:href="#path1_stroke" transform="matrix(0.707107 0.707107 -0.707107 0.707107 205.95 8.48529)"/>
</g>
</g>
</g>
</g>
<defs>
<path id="path0_stroke" d="M 8 4.5C 8 6.433 6.433 8 4.5 8L 4.5 10C 7.53757 10 10 7.53757 10 4.5L 8 4.5ZM 4.5 8C 2.567 8 1 6.433 1 4.5L -1 4.5C -1 7.53757 1.46243 10 4.5 10L 4.5 8ZM 1 4.5C 1 2.567 2.567 1 4.5 1L 4.5 -1C 1.46243 -1 -1 1.46243 -1 4.5L 1 4.5ZM 4.5 1C 6.433 1 8 2.567 8 4.5L 10 4.5C 10 1.46243 7.53757 -1 4.5 -1L 4.5 1Z"/>
<path id="path1_stroke" d="M 0 7L -1 7C -1 7.55228 -0.552285 8 2.22045e-16 8L 0 7ZM 3 7L 3 8C 3.55228 8 4 7.55228 4 7L 3 7ZM 2.5 0C 2.5 -0.552285 2.05228 -1 1.5 -1C 0.947715 -1 0.5 -0.552285 0.5 0L 2.5 0ZM 0 8L 3 8L 3 6L 0 6L 0 8ZM 4 7L 4 4L 2 4L 2 7L 4 7ZM -1 4L -1 7L 1 7L 1 4L -1 4ZM 2.5 2.5L 2.5 0L 0.5 0L 0.5 2.5L 2.5 2.5ZM 4 4C 4 2.61929 2.88071 1.5 1.5 1.5L 1.5 3.5C 1.77614 3.5 2 3.72386 2 4L 4 4ZM 1 4C 1 3.72386 1.22386 3.5 1.5 3.5L 1.5 1.5C 0.119289 1.5 -1 2.61929 -1 4L 1 4Z"/>
</defs>
</svg>
