<svg width="18" height="18" viewBox="0 0 18 18" version="1.1" xmlns="http://www.w3.org/2000/svg" xmlns:xlink="http://www.w3.org/1999/xlink">
<title>undo</title>
<desc>Created using Figma</desc>
<g id="Canvas" transform="translate(-265 0)">
<clipPath id="clip-0" clip-rule="evenodd">
<path d="M 265 0L 283 0L 283 18L 265 18L 265 0Z" fill="#FFFFFF"/>
</clipPath>
<g id="undo" clip-path="url(#clip-0)">
<g id="Vector 11">
<use xlink:href="#path0_stroke" transform="translate(267 2)"/>
</g>
</g>
</g>
<defs>
<path id="path0_stroke" d="M 3.5 12C 2.94772 12 2.5 12.4477 2.5 13C 2.5 13.5523 2.94772 14 3.5 14L 3.5 12ZM 0 4L -0.707107 3.29289C -1.09763 3.68342 -1.09763 4.31658 -0.707107 4.70711L 0 4ZM 3.29289 8.70711C 3.68342 9.09763 4.31658 9.09763 4.70711 8.70711C 5.09763 8.31658 5.09763 7.68342 4.70711 7.29289L 3.29289 8.70711ZM 4.70711 0.707107C 5.09763 0.316583 5.09763 -0.316583 4.70711 -0.707107C 4.31658 -1.09763 3.68342 -1.09763 3.29289 -0.707107L 4.70711 0.707107ZM 3.5 14L 8.5 14L 8.5 12L 3.5 12L 3.5 14ZM 8.5 3L 0 3L 0 5L 8.5 5L 8.5 3ZM -0.707107 4.70711L 3.29289 8.70711L 4.70711 7.29289L 0.707107 3.29289L -0.707107 4.70711ZM 0.707107 4.70711L 4.70711 0.707107L 3.29289 -0.707107L -0.707107 3.29289L 0.707107 4.70711ZM 8.5 14C 11.5376 14 14 11.5376 14 8.5L 12 8.5C 12 10.433 10.433 12 8.5 12L 8.5 14ZM 14 8.5C 14 5.46243 11.5376 3 8.5 3L 8.5 5C 10.433 5 12 6.567 12 8.5L 14 8.5Z"/>
</defs>
</svg>
