<svg width="18" height="18" viewBox="0 0 18 18" version="1.1" xmlns="http://www.w3.org/2000/svg" xmlns:xlink="http://www.w3.org/1999/xlink">
<title>warning</title>
<desc>Created using Figma</desc>
<g id="Canvas" transform="translate(-287 0)">
<clipPath id="clip-0" clip-rule="evenodd">
<path d="M 287 0L 305 0L 305 18L 287 18L 287 0Z" fill="#FFFFFF"/>
</clipPath>
<g id="warning" clip-path="url(#clip-0)">
<g id="Polygon">
<use xlink:href="#path0_stroke" transform="translate(289.072 3)"/>
</g>
<g id="Vector 12">
<use xlink:href="#path1_stroke" transform="translate(296 9)"/>
</g>
<g id="Ellipse 8">
<use xlink:href="#path2_fill" transform="translate(295 14)"/>
</g>
</g>
</g>
<defs>
<path id="path0_stroke" d="M 6.9282 0L 7.79423 -0.5C 7.6156 -0.809401 7.28547 -1 6.9282 -1C 6.57094 -1 6.24081 -0.809401 6.06218 -0.5L 6.9282 0ZM 13.8564 12L 13.8564 13C 14.2137 13 14.5438 12.8094 14.7224 12.5C 14.9011 12.1906 14.9011 11.8094 14.7224 11.5L 13.8564 12ZM 0 12L -0.866025 11.5C -1.04466 11.8094 -1.04466 12.1906 -0.866025 12.5C -0.687393 12.8094 -0.357266 13 1.92296e-16 13L 0 12ZM 3.92819 13C 4.48048 13 4.92819 12.5523 4.92819 12C 4.92819 11.4477 4.48048 11 3.92819 11L 3.92819 13ZM 9.92819 11C 9.37591 11 8.92819 11.4477 8.92819 12C 8.92819 12.5523 9.37591 13 9.92819 13L 9.92819 11ZM 6.06218 0.5L 12.9904 12.5L 14.7224 11.5L 7.79423 -0.5L 6.06218 0.5ZM 0.866025 12.5L 7.79423 0.5L 6.06218 -0.5L -0.866025 11.5L 0.866025 12.5ZM 0 13L 3.92819 13L 3.92819 11L 0 11L 0 13ZM 13.8564 11L 9.92819 11L 9.92819 13L 13.8564 13L 13.8564 11Z"/>
<path id="path1_stroke" d="M 1 0C 1 -0.552285 0.552285 -1 0 -1C -0.552285 -1 -1 -0.552285 -1 0L 1 0ZM -1 3C -1 3.55228 -0.552285 4 0 4C 0.552285 4 1 3.55228 1 3L -1 3ZM -1 0L -1 3L 1 3L 1 0L -1 0Z"/>
<path id="path2_fill" d="M 2 1C 2 1.55228 1.55228 2 1 2C 0.447715 2 0 1.55228 0 1C 0 0.447715 0.447715 0 1 0C 1.55228 0 2 0.447715 2 1Z"/>
</defs>
</svg>
